<?xml version="1.0" standalone="no"?>
<!DOCTYPE svg PUBLIC "-//W3C//DTD SVG 20010904//EN"
 "http://www.w3.org/TR/2001/REC-SVG-20010904/DTD/svg10.dtd">
<svg version="1.0" xmlns="http://www.w3.org/2000/svg"
 width="80.000000pt" height="80.000000pt" viewBox="0 0 80.000000 80.000000"
 preserveAspectRatio="xMidYMid meet">

<g transform="translate(0.000000,80.000000) scale(0.100000,-0.100000)"
fill="#000000" stroke="none">
<path d="M337 760 c-31 -25 -42 -65 -26 -102 12 -29 54 -58 84 -58 30 0 72 29
84 58 24 59 -19 122 -84 122 -18 0 -44 -9 -58 -20z"/>
<path d="M198 650 c-87 -58 -139 -149 -146 -257 -4 -60 -2 -73 10 -73 11 0 17
17 22 63 4 34 16 81 26 103 21 50 79 116 126 145 34 21 46 49 21 49 -8 0 -34
-14 -59 -30z"/>
<path d="M520 662 c0 -10 15 -26 36 -37 79 -42 133 -134 143 -239 4 -54 10
-71 21 -71 12 0 15 14 14 70 0 56 -6 81 -28 125 -32 65 -87 124 -138 151 -46
23 -48 23 -48 1z"/>
<path d="M317 390 c-56 -14 -117 -48 -117 -65 0 -21 16 -19 69 8 37 18 63 22
131 22 74 0 93 -4 140 -28 40 -21 55 -25 61 -15 30 48 -177 105 -284 78z"/>
<path d="M84 290 c-57 -23 -71 -99 -28 -149 35 -42 81 -42 126 -2 45 40 45 92
0 132 -33 29 -60 35 -98 19z m80 -52 c24 -34 20 -38 -39 -38 -48 0 -55 3 -55
20 0 41 69 54 94 18z"/>
<path d="M619 261 c-39 -40 -40 -87 -1 -124 61 -58 152 -18 152 68 0 38 -50
85 -90 85 -22 0 -41 -9 -61 -29z m99 -23 c7 -7 12 -24 12 -38 0 -33 -17 -50
-50 -50 -33 0 -50 17 -50 50 0 33 17 50 50 50 14 0 31 -5 38 -12z"/>
<path d="M190 95 c0 -35 108 -76 201 -77 99 -1 232 52 203 82 -7 7 -27 3 -70
-17 -84 -39 -186 -39 -265 0 -65 31 -69 32 -69 12z"/>
</g>
</svg>
